<svg xmlns="http://www.w3.org/2000/svg" viewBox="0 0 126.244 74.839" height="282.856" width="477.143" xmlns:v="https://vecta.io/nano"><g stroke="#3c3f22"><path d="M77.107 43.1c2.12.97 15.988 3.023 23.954 1.417 10.262.692 21.573 9.053 3.118 5.008.373 3.743 17.96 17.22 19.42.378.1-8.47-4.02-15.98-10.49-18.804-7.06-3.31-12.165-9.225-17.765-14.505-7.786-6.573-17.15-10.232-27.167-12.71-5.76-.963-9.222-.775-14.08-.756-16.4.843-24.772 7.91-35.908 18.048 0 0-4.583 5.67-5.292 7.134-4.01 4.74-2.192 11.236-2.977 13.418 9.488-6.866 35.045-9.145 49.625-1.99 4.32 2.12 12.894 1.632 17.56 3.36z" fill="#f7b51b" stroke-width="1.565"/><path d="M54.712 38.176c-1.166-.328-7.874 8.757-10.678 10.867-3.182 2.394-14.678 3.667-18.143 2.74-3.524-.942-16.347.85-18.9 1.984C2.38 51.08 9.1 42.322 9.922 41.72c18.844-9.985 41.506-5.937 44.8-3.544z" fill="#eaa609" stroke-width="1.3"/><path d="M44.98 48.76c1.953 15.685-4.543 20.405-9.26 19.088-6.068-2.382-18.1-5.382-18.9-3.024-1.415 2.184-3.054 5.418-3.72 6-2.66 2.33-9.523 1.018-10.644-1.275 1.258-5.892.508-11.83 4.536-15.78 7.363-1.785 11.222-2.182 17.668-2.26 8.033-.1 15.53.43 20.32-2.747z" fill="#e0a008" stroke-width="1.2"/></g><path d="M82.777 66.902c-.27.523-1.973.2-4.536-.672-2.552-.88-5.897-2.357-9.52-3.52-1.97-.632-3.728-1.06-5.456-1.33-1.552-.255-2.83-.258-3.97-.075-2.236.322-3.652 1.05-4.017.4-.27-.482.55-1.816 3.1-3.107 1.4-.685 3.203-1.1 5.26-1.02 2.024.1 4.15.468 6.353 1.157 4.02 1.258 7.473 3.303 9.63 4.833 2.234 1.584 3.432 2.82 3.166 3.333zm12.568.378c-.48-.56 1.84-4.644 7.423-6.96l.22-.1c2.862-1.17 5.622-1.014 7.505-.307s2.56 1.76 2.335 2.158c-.247.44-1.333.257-2.805.307-1.585.054-3.438.365-5.694 1.222l-.182.073c-4.513 1.818-8.147 4.358-8.8 3.595z" fill="#ffad00"/></svg>